<?xml version="1.0" encoding="utf-8"?>
<!-- Generator: Adobe Illustrator 22.0.1, SVG Export Plug-In . SVG Version: 6.00 Build 0)  -->
<svg version="1.1" id="Layer_1" xmlns="http://www.w3.org/2000/svg" xmlns:xlink="http://www.w3.org/1999/xlink" x="0px" y="0px"
	 viewBox="0 0 128 128" style="enable-background:new 0 0 128 128;" xml:space="preserve">
<style type="text/css">
	.st0{fill:#F68D11;}
	.st1{fill:#100F0D;}
</style>
<path id="path14" class="st0" d="M37.5,52.6l-7.1-2.4V40l7.1,2.1L37.5,52.6"/>
<path id="path16" class="st0" d="M39.4,42.1l7.1-2.1l0,10.3l-7.1,2.4V42.1"/>
<path id="path18" class="st0" d="M45,38.8l-6.6-2.1l-6.6,2.1l6.6,1.8L45,38.8"/>
<path id="path20" class="st0" d="M55.5,52.6l-7.1-2.4V40l7.1,2.1L55.5,52.6"/>
<path id="path22" class="st0" d="M57.3,42.1l7.1-2.1l0,10.3l-7.1,2.4V42.1"/>
<path id="path24" class="st0" d="M63,38.8l-6.6-2.1l-6.6,2.1l6.6,1.8L63,38.8"/>
<path id="path26" class="st0" d="M10.6,57.1L3.5,55v10.3l7.1,2.4L10.6,57.1"/>
<path id="path28" class="st0" d="M12.5,57.1l7.1-2.1l0,10.3l-7.1,2.4V57.1"/>
<path id="path30" class="st0" d="M18.1,53.9l-6.6-2.1L5,53.9l6.6,1.8L18.1,53.9"/>
<path id="path32" class="st0" d="M28.6,67.7l-7.1-2.4V55l7.1,2.1L28.6,67.7"/>
<path id="path34" class="st0" d="M30.4,57.1l7.1-2.1l0,10.3l-7.1,2.4V57.1"/>
<path id="path36" class="st0" d="M36.1,53.9l-6.6-2.1l-6.6,2.1l6.6,1.8L36.1,53.9"/>
<path id="path38" class="st0" d="M19.6,82.7l-7.1-2.4V70l7.1,2.1L19.6,82.7"/>
<path id="path40" class="st0" d="M21.4,72.1l7.1-2.1l0,10.3l-7.1,2.4V72.1"/>
<path id="path42" class="st0" d="M27.1,68.9l-6.6-2.1l-6.6,2.1l6.6,1.8L27.1,68.9"/>
<path id="path44" class="st1" d="M51.1,73.6l-0.5,0c-0.2,0-0.4,0.1-0.5,0.3l-1.6,5.6l-1.6-5.6c0-0.2-0.2-0.4-0.4-0.4h-0.6
	c-0.2,0-0.4,0.2-0.4,0.4L44,79.5l-1.5-5.5c-0.1-0.2-0.3-0.3-0.5-0.3l-0.8,0c-0.2,0-0.3,0.1-0.4,0.2c-0.1,0.1-0.1,0.2,0,0.2l2.3,8.3
	c0.1,0.2,0.2,0.3,0.4,0.3h0.7c0.2,0,0.4-0.1,0.4-0.4l1.4-5.5l1.6,5.5c0,0.2,0.2,0.4,0.4,0.4h0.7c0.2,0,0.4-0.1,0.4-0.4l2.2-8.2
	c0-0.1,0-0.2,0-0.2C51.4,73.7,51.2,73.6,51.1,73.6"/>
<path id="path46" class="st1" d="M57.6,77.1h-4c0.1-1.1,0.8-2.3,2-2.3C56.9,74.8,57.5,76,57.6,77.1z M55.6,73.5
	c-2.7,0-3.9,2.4-3.9,4.6c0,2.7,1.5,4.5,3.9,4.5c1.7,0,3-0.8,3.5-2.3c0-0.1,0-0.2,0-0.3c-0.1-0.1-0.2-0.2-0.3-0.2L58,79.7
	c-0.2,0-0.4,0.1-0.5,0.3c-0.4,0.8-1,1.3-1.8,1.3c-0.8,0-1.5-0.5-1.9-1.2c-0.3-0.6-0.3-1.1-0.3-1.7l5.4,0c0.1,0,0.2,0,0.3-0.1
	c0.1-0.1,0.1-0.2,0.1-0.2C59.3,75.8,58.3,73.5,55.6,73.5"/>
<path id="path48" class="st1" d="M65.9,78.1c0,0.5-0.1,3-1.9,3.1c-0.6,0-1.2-0.4-1.5-0.9c-0.2-0.4-0.4-0.9-0.4-1.6v-1.5
	c0-1.1,0.8-2.4,2-2.4C65.8,74.8,65.9,77.6,65.9,78.1L65.9,78.1z M64.3,73.5h-0.1c-0.9,0-1.6,0.4-2.1,1.1l0-3.5
	c0-0.2-0.2-0.4-0.4-0.4h-0.8c-0.2,0-0.4,0.2-0.4,0.4V82c0,0.2,0.2,0.4,0.4,0.4l0.2,0c0.2,0,0.4-0.2,0.4-0.3l0.2-0.8
	c0.6,0.8,1.4,1.3,2.3,1.3h0.1c2.4,0,3.5-2.3,3.5-4.6c0-1.1-0.3-2.2-0.8-3C66.3,74,65.3,73.5,64.3,73.5"/>
<path id="path50" class="st1" d="M76.1,77.9c-0.5-0.4-1.1-0.5-1.7-0.6L73.2,77c-0.8-0.1-1.3-0.4-1.3-1.1c0-0.8,0.8-1.1,1.5-1.1
	c0.8,0,1.5,0.4,1.8,1c0.1,0.2,0.2,0.3,0.4,0.3c0,0,0.1,0,0.1,0l0.7-0.2c0.1,0,0.2-0.1,0.3-0.2c0-0.1,0.1-0.2,0-0.3
	c-0.4-1.3-1.6-2-3.3-2c-1.5,0-3.2,0.7-3.2,2.6c0,1.3,0.8,2.1,2.4,2.5l1.3,0.2c0.7,0.1,1.4,0.4,1.4,1.1c0,1.1-1.3,1.2-1.7,1.3
	c-0.9,0-1.9-0.4-2.2-1.3c0-0.2-0.3-0.3-0.5-0.3l-0.8,0.2c-0.1,0-0.2,0.1-0.3,0.2c-0.1,0.1-0.1,0.2,0,0.3c0.4,1.4,1.7,2.2,3.6,2.3
	l0,0c1.7,0,3.5-0.7,3.5-2.7C77.1,79.1,76.8,78.3,76.1,77.9"/>
<path id="path52" class="st1" d="M83.8,77.1h-4c0.1-1.1,0.8-2.3,2-2.3C83.1,74.8,83.7,76,83.8,77.1z M81.8,73.5
	c-2.7,0-3.9,2.4-3.9,4.6c0,2.7,1.5,4.5,3.9,4.5c1.7,0,3-0.8,3.5-2.3c0-0.1,0-0.2,0-0.3c-0.1-0.1-0.2-0.2-0.3-0.2l-0.7-0.1
	c-0.2,0-0.4,0.1-0.5,0.3c-0.4,0.8-1,1.3-1.8,1.3c-0.8,0-1.5-0.5-1.9-1.2c-0.3-0.6-0.3-1.1-0.3-1.7l5.4,0c0.1,0,0.2,0,0.3-0.1
	c0.1-0.1,0.1-0.2,0.1-0.2C85.5,75.8,84.5,73.5,81.8,73.5"/>
<path id="path54" class="st1" d="M90.6,73.6c-0.1,0-0.2,0-0.3,0c-0.9,0-1.6,0.5-2.1,1.4l0-0.8c0-0.2-0.2-0.4-0.4-0.4h-0.7
	c-0.2,0-0.4,0.2-0.4,0.4l0,8c0,0.2,0.2,0.4,0.4,0.4l0.8,0c0.2,0,0.4-0.2,0.4-0.4l0-4c0-0.7,0.1-1.2,0.4-1.8c0.5-0.8,1.1-1.3,1.9-1.3
	c0.2,0,0.4-0.2,0.4-0.4V74C91,73.8,90.8,73.7,90.6,73.6"/>
<path id="path56" class="st1" d="M98.8,73.5l-0.6,0c-0.2,0-0.4,0.1-0.5,0.3l-2,6.3l-2-6.3c-0.1-0.2-0.3-0.3-0.5-0.3l-0.9,0
	c-0.2,0-0.3,0.1-0.4,0.2c-0.1,0.1-0.1,0.2,0,0.2l2.8,8.3c0.1,0.2,0.2,0.4,0.4,0.4h1.1c0.2,0,0.4-0.1,0.4-0.4l2.7-8.3
	c0-0.1,0-0.2,0-0.2C99.1,73.6,99,73.5,98.8,73.5"/>
<path id="path58" class="st1" d="M100.8,70.3c-0.6,0-1,0.5-1,1c0,0.6,0.5,1,1,1c0.6,0,1-0.5,1-1C101.9,70.8,101.4,70.3,100.8,70.3"
	/>
<path id="path60" class="st1" d="M101.3,73.4l-0.8,0c-0.2,0-0.4,0.2-0.4,0.4l0,8.5c0,0.1,0.1,0.2,0.1,0.3c0.1,0.1,0.2,0.1,0.3,0.1
	l0.9,0h0c0.2,0,0.4-0.2,0.4-0.4v-8.5C101.7,73.6,101.5,73.4,101.3,73.4"/>
<path id="path62" class="st1" d="M109.2,79.2l-0.7,0c-0.2,0-0.4,0.1-0.4,0.3c-0.3,1.1-0.8,1.7-1.7,1.7c-1.7-0.1-1.9-2.5-1.9-3.2
	c0-1.5,0.5-3.1,1.9-3.1c0.9,0,1.5,0.6,1.7,1.6c0,0.2,0.2,0.4,0.4,0.4l0.8,0c0.2,0,0.4-0.2,0.4-0.4c-0.3-1.8-1.5-3-3.2-3l-0.1,0
	l-0.1,0c-2.4,0-3.5,2.3-3.5,4.5c0,2.1,0.9,4.5,3.5,4.5h0.1c1.6,0,2.9-1.1,3.2-3c0-0.1,0-0.2-0.1-0.2
	C109.5,79.2,109.3,79.2,109.2,79.2"/>
<path id="path64" class="st1" d="M116.2,77.1h-4c0.1-1.1,0.8-2.3,2-2.3C115.6,74.8,116.2,76,116.2,77.1z M114.3,73.5
	c-2.7,0-3.9,2.4-3.9,4.6c0,2.7,1.5,4.5,3.9,4.5c1.7,0,3-0.8,3.5-2.3c0-0.1,0-0.2,0-0.3c-0.1-0.1-0.2-0.2-0.3-0.2l-0.7-0.1
	c-0.2,0-0.4,0.1-0.5,0.3c-0.4,0.8-1,1.3-1.8,1.3c-0.8,0-1.5-0.5-1.9-1.2c-0.3-0.6-0.3-1.1-0.3-1.7l5.4,0c0.1,0,0.2,0,0.3-0.1
	c0.1-0.1,0.1-0.2,0.1-0.2C117.9,75.8,117,73.5,114.3,73.5"/>
<path id="path66" class="st1" d="M124.7,77.9c-0.5-0.4-1.1-0.5-1.7-0.6l-1.2-0.2c-0.8-0.1-1.3-0.4-1.3-1.1c0-1,1.2-1.1,1.5-1.1
	c0.8,0,1.5,0.4,1.8,1c0.1,0.2,0.2,0.3,0.4,0.3c0,0,0.1,0,0.1,0l0.7-0.2c0.1,0,0.2-0.1,0.3-0.2c0-0.1,0.1-0.2,0-0.3
	c-0.4-1.3-1.6-2-3.3-2c-1.5,0-3.2,0.7-3.2,2.6c0,1.3,0.8,2.1,2.4,2.5l1.3,0.2c0.7,0.1,1.4,0.4,1.4,1.1c0,1.1-1.3,1.2-1.7,1.3
	c-0.8,0-1.9-0.4-2.2-1.3c0-0.2-0.3-0.3-0.5-0.3l-0.8,0.2c-0.1,0-0.2,0.1-0.3,0.2c-0.1,0.1-0.1,0.2,0,0.3c0.4,1.4,1.7,2.2,3.6,2.3
	l0,0c1.7,0,3.5-0.7,3.5-2.7C125.7,79.1,125.3,78.3,124.7,77.9"/>
<path id="path68" class="st1" d="M90.2,57.2v-1.9c0-0.3,0.2-0.5,0.5-0.5l8.6,0c0.3,0,0.5,0.2,0.5,0.5v1.6c0,0.3-0.2,0.6-0.6,1.2
	l-4.5,6.4c1.7,0,3.4,0.2,4.9,1.1c0.3,0.2,0.4,0.5,0.5,0.7v2c0,0.3-0.3,0.6-0.6,0.4c-2.6-1.4-6.2-1.5-9.1,0c-0.3,0.2-0.6-0.2-0.6-0.4
	v-1.9c0-0.3,0-0.8,0.3-1.3l5.2-7.4l-4.5,0C90.4,57.6,90.2,57.4,90.2,57.2"/>
<path id="path70" class="st1" d="M58.8,69.1h-2.6c-0.2,0-0.4-0.2-0.5-0.4l0-13.4c0-0.3,0.2-0.5,0.5-0.5l2.4,0c0.3,0,0.5,0.2,0.5,0.5
	V57h0c0.6-1.7,1.8-2.5,3.4-2.5c1.6,0,2.7,0.8,3.4,2.5c0.6-1.7,2.1-2.5,3.6-2.5c1.1,0,2.3,0.5,3,1.5c0.8,1.1,0.7,2.8,0.7,4.2l0,8.5
	c0,0.3-0.2,0.5-0.5,0.5h-2.6c-0.3,0-0.5-0.2-0.5-0.5v-7.1c0-0.6,0-2-0.1-2.5c-0.2-0.9-0.8-1.2-1.5-1.2c-0.6,0-1.3,0.4-1.6,1.1
	c-0.3,0.7-0.2,1.8-0.2,2.6v7.1c0,0.3-0.2,0.5-0.5,0.5h-2.6c-0.3,0-0.5-0.2-0.5-0.5l0-7.1c0-1.5,0.2-3.7-1.6-3.7
	c-1.9,0-1.8,2.1-1.8,3.7l0,7.1C59.3,68.9,59.1,69.1,58.8,69.1"/>
<path id="path72" class="st1" d="M107.2,57.2c-1.9,0-2.1,2.6-2.1,4.3c0,1.6,0,5.1,2,5.1c2,0,2.1-2.8,2.1-4.6c0-1.1,0-2.5-0.4-3.6
	C108.6,57.6,108.1,57.2,107.2,57.2z M107.2,54.5c3.9,0,6,3.3,6,7.6c0,4.1-2.3,7.4-6,7.4c-3.8,0-5.9-3.3-5.9-7.5
	C101.3,57.7,103.4,54.5,107.2,54.5"/>
<path id="path74" class="st1" d="M118.2,69.1h-2.6c-0.3,0-0.5-0.2-0.5-0.5l0-13.4c0-0.2,0.2-0.4,0.5-0.4l2.4,0
	c0.2,0,0.4,0.2,0.5,0.4v2.1h0c0.7-1.8,1.8-2.7,3.6-2.7c1.2,0,2.3,0.4,3.1,1.6c0.7,1.1,0.7,2.9,0.7,4.2v8.5c0,0.2-0.2,0.4-0.5,0.4
	h-2.6c-0.2,0-0.4-0.2-0.5-0.4v-7.3c0-1.5,0.2-3.6-1.6-3.6c-0.6,0-1.2,0.4-1.5,1.1c-0.4,0.8-0.4,1.6-0.4,2.5v7.2
	C118.7,68.9,118.5,69.1,118.2,69.1"/>
<path class="st1" d="M88,66.7c-0.5-0.7-1-1.2-1-2.4v-4.1c0-1.7,0.1-3.3-1.2-4.5c-1-1-2.7-1.3-3.9-1.3c-2.5,0-5.3,0.9-5.9,4
	c-0.1,0.3,0.2,0.5,0.4,0.5l2.5,0.3c0.2,0,0.4-0.2,0.5-0.5c0.2-1.1,1.1-1.6,2.1-1.6c0.5,0,1.2,0.2,1.5,0.7c0.4,0.5,0.3,1.3,0.3,1.9
	v0.3c-1.5,0.2-3.5,0.3-4.9,0.9c-1.6,0.7-2.8,2.2-2.8,4.3c0,2.7,1.7,4.1,3.9,4.1c1.9,0,2.9-0.4,4.3-1.9c0.5,0.7,0.6,1,1.5,1.7
	c0.2,0.1,0.4,0.1,0.6-0.1l0,0c0.5-0.5,1.5-1.3,2-1.7C88.2,67.2,88.2,66.9,88,66.7z M82.9,65.5c-0.4,0.7-1.1,1.2-1.8,1.2
	c-1,0-1.6-0.8-1.6-1.9c0-2.2,2-2.6,3.9-2.6v0.6C83.4,63.7,83.4,64.6,82.9,65.5z"/>
<path class="st1" d="M53.7,66.7c-0.5-0.7-1-1.2-1-2.4v-4.1c0-1.7,0.1-3.3-1.2-4.5c-1-1-2.7-1.3-3.9-1.3c-2.5,0-5.3,0.9-5.9,4
	c-0.1,0.3,0.2,0.5,0.4,0.5l2.5,0.3c0.2,0,0.4-0.2,0.5-0.5c0.2-1.1,1.1-1.6,2.1-1.6c0.5,0,1.2,0.2,1.5,0.7c0.4,0.5,0.3,1.3,0.3,1.9
	v0.3c-1.5,0.2-3.5,0.3-4.9,0.9c-1.6,0.7-2.8,2.2-2.8,4.3c0,2.7,1.7,4.1,3.9,4.1c1.9,0,2.9-0.4,4.3-1.9c0.5,0.7,0.6,1,1.5,1.7
	c0.2,0.1,0.4,0.1,0.6-0.1l0,0c0.5-0.5,1.5-1.3,2-1.7C53.9,67.2,53.9,66.9,53.7,66.7z M48.6,65.5c-0.4,0.7-1.1,1.2-1.8,1.2
	c-1,0-1.6-0.8-1.6-1.9c0-2.2,2-2.6,3.9-2.6v0.6C49,63.7,49.1,64.6,48.6,65.5z"/>
</svg>
