<?xml version="1.0" encoding="utf-8"?>
<!-- Generator: Adobe Illustrator 22.0.1, SVG Export Plug-In . SVG Version: 6.00 Build 0)  -->
<svg version="1.1" id="Layer_1" xmlns="http://www.w3.org/2000/svg" xmlns:xlink="http://www.w3.org/1999/xlink" x="0px" y="0px"
	 viewBox="0 0 128 128" style="enable-background:new 0 0 128 128;" xml:space="preserve">
<style type="text/css">
	.st0{fill:#374649;}
	.st1{fill:#23A0C8;}
	.st2{fill:#38B1D9;}
	.st3{fill:#1F82A6;}
	.st4{fill:#1C92B5;}
	.st5{fill:#23A3C2;}
	.st6{fill:#35BCDF;}
	.st7{fill:#D3EDEC;}
	.st8{fill:#BEDAD8;}
</style>
<title>Group</title>
<desc>Created with Sketch.</desc>
<g>
	<path class="st0" d="M73.6,51.1h11v11.3h5.6c2.6,0,5.2-0.5,7.7-1.3c1.2-0.4,2.5-1,3.7-1.7c-1.6-2-2.4-4.6-2.6-7.1
		c-0.3-3.4,0.4-7.9,2.7-10.6l1.2-1.3l1.4,1.1c3.5,2.8,6.4,6.7,6.9,11.1c4.2-1.2,9.1-0.9,12.8,1.2l1.5,0.9l-0.8,1.6
		c-3.1,6.1-9.6,8-16,7.6c-9.5,23.8-30.3,35-55.5,35c-13,0-25-4.9-31.8-16.4l-0.1-0.2l-1-2c-2.3-5.1-3.1-10.7-2.5-16.2l0.2-1.7h9.4
		V51.1h11v-11h22v-11h13.2V51.1"/>
	<path class="st1" d="M109.3,55.3c0.7-5.7-3.6-10.3-6.2-12.4c-3.1,3.6-3.5,12.9,1.3,16.8c-2.7,2.4-8.4,4.6-14.2,4.6H19.6
		c-0.6,6.1,0.5,11.6,2.9,16.4l0.8,1.5c0.5,0.9,1.1,1.7,1.7,2.5c2.9,0.2,5.6,0.3,8,0.2h0c4.8-0.1,8.7-0.7,11.7-1.7
		c0.4-0.1,0.9,0.1,1.1,0.6c0.1,0.4-0.1,0.9-0.5,1c-0.4,0.1-0.8,0.3-1.2,0.4h0c-2.3,0.7-4.9,1.1-8.1,1.3c0.2,0-0.2,0-0.2,0
		c-0.1,0-0.2,0-0.4,0c-1.3,0.1-2.7,0.1-4.1,0.1c-1.5,0-3.1,0-4.8-0.1l0,0c5.9,6.6,15.1,10.6,26.6,10.6c24.4,0,45.1-10.8,54.3-35.1
		c6.5,0.7,12.8-1,15.6-6.5C118.5,52.8,112.7,53.6,109.3,55.3"/>
	<path class="st2" d="M109.3,55.3c0.7-5.7-3.6-10.3-6.2-12.4c-3.1,3.6-3.5,12.9,1.3,16.8c-2.7,2.4-8.4,4.6-14.2,4.6H23.8
		c-0.3,9.3,3.2,16.3,9.2,20.6h0c4.8-0.1,8.7-0.7,11.7-1.7c0.4-0.1,0.9,0.1,1.1,0.6c0.1,0.4-0.1,0.9-0.5,1c-0.4,0.1-0.8,0.3-1.2,0.4
		h0c-2.3,0.7-5.1,1.2-8.3,1.4c0,0-0.1-0.1-0.1-0.1c8.3,4.3,20.4,4.2,34.2-1.1c15.5-6,29.9-17.3,40-30.3
		C109.6,55.2,109.5,55.2,109.3,55.3"/>
	<path class="st3" d="M19.7,71.6c0.4,3.2,1.4,6.3,2.8,9.1l0.8,1.5c0.5,0.9,1.1,1.7,1.7,2.5c2.9,0.2,5.6,0.3,8,0.2
		c4.8-0.1,8.7-0.7,11.7-1.7c0.4-0.1,0.9,0.1,1.1,0.6c0.1,0.4-0.1,0.9-0.5,1c-0.4,0.1-0.8,0.3-1.2,0.4h0c-2.3,0.7-5.1,1.1-8.3,1.3
		c-0.1,0-0.3,0-0.4,0c-1.3,0.1-2.6,0.1-4,0.1c-1.5,0-3.1,0-4.8-0.1c5.9,6.6,15.1,10.6,26.7,10.6c20.9,0,39.1-7.9,49.6-25.5H19.7"/>
	<path class="st4" d="M24.4,71.6c1.2,5.7,4.3,10.2,8.6,13.2c4.8-0.1,8.7-0.7,11.7-1.7c0.4-0.1,0.9,0.1,1.1,0.6
		c0.1,0.4-0.1,0.9-0.5,1c-0.4,0.1-0.8,0.3-1.2,0.4h0c-2.3,0.7-5.1,1.1-8.4,1.3c8.3,4.3,20.3,4.2,34.1-1.1c8.4-3.2,16.4-8,23.6-13.7
		H24.4"/>
	<path class="st5" d="M29.2,53h9.6v9.6h-9.6V53z M30,53.8h0.8v8H30V53.8z M31.4,53.8h0.8v8h-0.8L31.4,53.8L31.4,53.8z M32.8,53.8
		h0.8v8h-0.8V53.8z M34.3,53.8h0.8v8h-0.8V53.8z M35.7,53.8h0.8v8h-0.8L35.7,53.8L35.7,53.8z M37.2,53.8h0.8v8h-0.8V53.8z M40.2,42
		h9.6v9.6h-9.6L40.2,42L40.2,42z M41,42.7h0.8v8H41V42.7z M42.4,42.7h0.8v8h-0.8L42.4,42.7L42.4,42.7z M43.8,42.7h0.8v8h-0.8V42.7z
		 M45.3,42.7h0.8v8h-0.8V42.7z M46.7,42.7h0.8v8h-0.8V42.7z M48.2,42.7h0.8v8h-0.8V42.7z"/>
	<path class="st6" d="M40.2,53h9.6v9.6h-9.6L40.2,53L40.2,53z M41,53.8h0.8v8H41V53.8z M42.4,53.8h0.8v8h-0.8L42.4,53.8L42.4,53.8z
		 M43.8,53.8h0.8v8h-0.8V53.8z M45.3,53.8h0.8v8h-0.8V53.8z M46.7,53.8h0.8v8h-0.8V53.8z M48.2,53.8h0.8v8h-0.8V53.8z"/>
	<path class="st5" d="M51.2,53h9.6v9.6h-9.6V53z M52,53.8h0.8v8H52V53.8z M53.4,53.8h0.8v8h-0.8V53.8z M54.9,53.8h0.8v8h-0.8V53.8z
		 M56.3,53.8h0.8v8h-0.8V53.8z M57.8,53.8h0.8v8h-0.8V53.8z M59.2,53.8H60v8h-0.8V53.8z"/>
	<path class="st6" d="M51.2,42h9.6v9.6h-9.6V42z M52,42.7h0.8v8H52V42.7z M53.4,42.7h0.8v8h-0.8V42.7z M54.9,42.7h0.8v8h-0.8V42.7z
		 M56.3,42.7h0.8v8h-0.8V42.7z M57.8,42.7h0.8v8h-0.8V42.7z M59.2,42.7H60v8h-0.8V42.7z M62.2,53h9.6v9.6h-9.6V53z M63,53.8h0.8v8
		H63V53.8z M64.4,53.8h0.8v8h-0.8V53.8z M65.9,53.8h0.8v8h-0.8V53.8z M67.3,53.8h0.8v8h-0.8V53.8z M68.8,53.8h0.8v8h-0.8V53.8z
		 M70.2,53.8H71v8h-0.8V53.8z"/>
	<path class="st5" d="M62.2,42h9.6v9.6h-9.6V42z M63,42.7h0.8v8H63V42.7z M64.4,42.7h0.8v8h-0.8V42.7z M65.9,42.7h0.8v8h-0.8V42.7z
		 M67.3,42.7h0.8v8h-0.8V42.7z M68.8,42.7h0.8v8h-0.8V42.7z M70.2,42.7H71v8h-0.8V42.7z"/>
	<path class="st6" d="M62.2,30.9h9.6v9.6h-9.6V30.9z M63,31.7h0.8v8H63V31.7L63,31.7z M64.4,31.7h0.8v8h-0.8V31.7L64.4,31.7z
		 M65.9,31.7h0.8v8h-0.8V31.7L65.9,31.7z M67.3,31.7h0.8v8h-0.8V31.7L67.3,31.7z M68.8,31.7h0.8v8h-0.8V31.7L68.8,31.7z M70.2,31.7
		H71v8h-0.8V31.7L70.2,31.7z"/>
	<path class="st5" d="M73.3,53h9.6v9.6h-9.6V53z M74.1,53.8h0.8v8h-0.8L74.1,53.8L74.1,53.8z M75.5,53.8h0.8v8h-0.8L75.5,53.8
		L75.5,53.8z M76.9,53.8h0.8v8h-0.8V53.8z M78.4,53.8h0.8v8h-0.8V53.8z M79.8,53.8h0.8v8h-0.8V53.8z M81.3,53.8H82v8h-0.8V53.8z"/>
	<path class="st7" d="M49.1,78c1.5,0,2.7,1.1,2.7,2.6s-1.1,2.7-2.6,2.7c0,0,0,0-0.1,0c-1.5,0-2.6-1.2-2.6-2.7
		C46.6,79.2,47.7,78,49.1,78"/>
	<path class="st0" d="M49.1,78.8c0.2,0,0.5,0,0.7,0.1c-0.4,0.2-0.5,0.7-0.3,1.1c0.1,0.2,0.4,0.4,0.7,0.4c0.3,0,0.5-0.2,0.7-0.4
		c0.4,1-0.1,2.1-1,2.5c-1,0.4-2.1-0.1-2.5-1s0.1-2.1,1-2.5C48.6,78.8,48.9,78.8,49.1,78.8 M2.5,72.6h122.6c-2.7-0.7-8.4-1.6-7.5-5.1
		c-4.9,5.6-16.6,3.9-19.5,1.2c-3.3,4.8-22.4,3-23.8-0.8c-4.1,4.8-16.9,4.8-21,0c-1.3,3.7-20.5,5.5-23.8,0.8
		c-3,2.8-14.7,4.4-19.5-1.2C11,71,5.2,71.9,2.5,72.6"/>
	<path class="st8" d="M56.1,97C49.6,93.9,46,89.7,44,85.1c-2.4,0.7-5.3,1.1-8.7,1.3c-1.3,0.1-2.6,0.1-4,0.1c-1.6,0-3.3,0-5.1-0.1
		c6,6,13.4,10.6,27,10.7C54.2,97.1,55.2,97.1,56.1,97"/>
	<path class="st7" d="M46.5,89.4c-0.9-1.2-1.8-2.8-2.4-4.2c-2.4,0.7-5.3,1.1-8.7,1.3C37.6,87.7,41,88.9,46.5,89.4"/>
</g>
</svg>
