<?xml version="1.0" encoding="utf-8"?>
<!-- Generator: Adobe Illustrator 22.0.1, SVG Export Plug-In . SVG Version: 6.00 Build 0)  -->
<svg version="1.1" id="Layer_1" xmlns="http://www.w3.org/2000/svg" xmlns:xlink="http://www.w3.org/1999/xlink" x="0px" y="0px"
	 viewBox="0 0 128 128" style="enable-background:new 0 0 128 128;" xml:space="preserve">
<style type="text/css">
	.st0{fill:#D19D30;}
	.st1{fill:#4B6DAF;}
	.st2{fill:#BA3B31;}
	.st3{fill:#5676B9;}
	.st4{fill:#CD4138;}
	.st5{fill:#C9CAC9;}
	.st6{fill:#ECB02C;}
</style>
<title>Group</title>
<desc>Created with Sketch.</desc>
<g>
	<path class="st0" d="M79.4,90.9c-1.4,2.5-2.9,5.1-4.3,7.6c-1.3,2.2-2.6,4.4-3.8,6.6c-0.8,1.5-1.8,3-3.5,3.6c-0.1,0-0.2,0-0.4,0
		c-0.7-0.1-0.8-0.4-0.7-1.1c0.8-4.1,1.6-8.2,2.4-12.3c0.3-1.5,0.6-3,0.9-4.5c0.3-0.4,0.7-0.3,1.1-0.3c2.3,0,4.7,0,7,0
		C78.7,90.5,79.1,90.5,79.4,90.9z"/>
	<path class="st1" d="M24.1,43.8c1.7,1.8,3.8,3.4,5.6,5.1c1.3,1.2,2.7,2.3,4,3.5c1.1,0.9,2.1,1.8,3.2,2.8c0.3,0.3,0.7,0.2,1.1,0.2
		c0.1,0.4-0.1,0.8-0.3,1.1c-1.3,2.3-2.6,4.5-3.9,6.7c-0.2,0.3-0.3,0.7-0.7,0.6c-2.7-4.6-5.3-9.2-8-13.7c-0.2-0.3-0.3-0.5-0.5-0.8
		c-0.9-1.4-1.4-2.9-1-4.6C23.7,44.4,23.9,44.1,24.1,43.8z"/>
	<path class="st2" d="M101.3,39.2c-0.6,0.8-1.6,0.8-2.4,1.1c-3.8,1.3-7.6,2.5-11.4,3.9c-1,0.4-2.2,0.5-3.2,1.1
		c-0.3,0.1-0.4-0.2-0.5-0.4c-1.3-2.3-2.7-4.5-4-6.8c-0.2-0.3-0.4-0.5-0.2-0.9c6.1,0,12.2,0,18.4,0c1.1,0,2,0.6,2.8,1.2
		C101,38.7,101.2,38.9,101.3,39.2z"/>
	<path class="st3" d="M100.5,37.7c-2.6-4.5-5.3-9.1-7.9-13.6c-1.8-3.2-4.6-4.8-8.3-4.8c-4.2,0-8.3,0-12.5,0c-9.4,0-18.8,0-28.2,0
		c-3.4,0-6.1,1.4-7.8,4.3c-4,6.7-7.8,13.5-11.7,20.2c0.1,0.6,0.6,0.9,1,1.3c2.3,2.1,4.7,4.1,7,6.1c1.5,1.3,2.9,2.6,4.5,3.9
		c0.5,0.4,1,0.6,1.6,0.2c0.4-0.4,0.7-0.9,1-1.4c2.9-5.1,5.9-10.1,8.7-15.1c0.6-1,1.2-1.4,2.4-1.4c9.8,0,19.7,0,29.5,0
		c5.6,0.1,11.1,0,16.7,0c1.3,0,2.6,0,3.7,0.8c0.2,0.1,0.4,0.2,0.6,0.1C100.8,38.1,100.6,37.9,100.5,37.7z M43.3,30.4
		c-1.2,0-2.2-1-2.2-2.2c0-1.2,1-2.2,2.2-2.2c1.2,0,2.2,1,2.3,2.2C45.6,29.4,44.6,30.4,43.3,30.4z M84.7,30.4c-1.3,0-2.3-1-2.3-2.2
		c0-1.2,1-2.2,2.2-2.2c1.2,0,2.2,1,2.2,2.2C86.9,29.4,86,30.4,84.7,30.4z"/>
	<path class="st4" d="M113,59.3c-1.5-2.6-3-5.2-4.5-7.8c-2.4-4.1-4.8-8.1-7.1-12.2c-1.5,0.5-3,1-4.6,1.5c-3.6,1.2-7.1,2.5-10.7,3.6
		c-0.6,0.2-1.3,0.3-1.8,0.9c-0.2,0.6,0.2,1,0.4,1.4c3.2,5.5,6.3,11,9.5,16.4c0.4,0.7,0.4,1.3,0,2c-2.8,4.7-5.4,9.3-8.1,14
		c-2.3,3.9-4.5,7.8-6.8,11.8c-2.9,5.1-5.8,10.2-8.8,15.3c-0.5,0.9-1.2,1.7-2.2,2.1c-0.2,0.1-0.4,0.2-0.5,0.5c5.5,0,11,0,16.5,0
		c3.7,0,6.4-1.6,8.2-4.7c6.8-11.8,13.6-23.5,20.4-35.3C114.8,65.6,114.8,62.4,113,59.3z M105.4,66.2c-1.2,0-2.2-1-2.2-2.2
		c0-1.3,1-2.3,2.3-2.3c1.2,0,2.2,1,2.2,2.2C107.6,65.2,106.6,66.2,105.4,66.2z"/>
	<path class="st5" d="M94.8,63.4c-1.6-2.8-3.2-5.5-4.8-8.3c-1.9-3.3-3.7-6.5-5.6-9.8c-1.7-2.6-3.2-5.4-4.7-8.1c-0.1,0-0.1,0-0.2,0
		c-10.1,0-20.2,0-30.4,0c-0.5,0-0.7,0.2-0.9,0.6c-1.8,3.2-3.7,6.4-5.5,9.5c-1.6,2.7-3,5.4-4.7,8c-1.5,2.9-3.2,5.7-4.9,8.5
		c1.7,3,3.5,6,5.2,9.1c3.3,5.7,6.6,11.5,9.9,17.2c0.3,0.5,0.6,0.7,1.2,0.7c1.3,0,2.5,0,3.8,0c5.7,0,11.4,0,17.1,0c3.1,0,6.2,0,9.3,0
		c0.3-0.5,0.6-1,0.9-1.5c4.8-8.2,9.5-16.5,14.3-24.7C94.9,64.2,95.1,63.9,94.8,63.4z M64.1,77.4c-7.5,0-13.5-6-13.5-13.4
		c0-7.3,6-13.5,13.6-13.4c7.2,0,13.3,5.8,13.3,13.4C77.5,71.4,71.5,77.4,64.1,77.4z"/>
	<path class="st6" d="M69.9,93.7c0.2-0.9,0.5-1.9,0.3-2.9c-0.4-0.3-1-0.2-1.5-0.2c-6.3,0-12.6,0-18.9,0c-0.9,0-1.4-0.3-1.8-1
		c-2.2-3.8-4.4-7.6-6.6-11.4c-2.7-4.8-5.5-9.5-8.3-14.3c-3-5.1-5.9-10.2-8.9-15.3c-0.6-1-0.9-2-0.7-3.2c0.1-0.2,0.1-0.5-0.2-0.7
		c-2.9,5-5.8,10-8.7,15c-1.6,2.9-1.5,5.9,0.1,8.8c6.8,11.9,13.7,23.7,20.5,35.5c1.8,3.2,4.6,4.7,8.2,4.7c7.6,0,15.1,0,22.7,0
		c0.4,0,0.8,0,1.1,0c-0.1-0.4-0.5-0.5-0.4-1C68,103,68.9,98.3,69.9,93.7z M22.7,66.2c-1.2,0-2.2-1-2.2-2.2c0-1.2,0.9-2.2,2.2-2.2
		c1.2,0,2.2,1,2.2,2.2C24.9,65.2,23.9,66.2,22.7,66.2z M43.3,102c-1.2,0-2.2-1-2.2-2.2c0-1.2,1-2.2,2.2-2.2c1.3,0,2.3,1,2.3,2.3
		C45.6,101,44.6,102,43.3,102z"/>
</g>
</svg>
