<?xml version="1.0" encoding="utf-8"?>
<!-- Generator: Adobe Illustrator 22.0.1, SVG Export Plug-In . SVG Version: 6.00 Build 0)  -->
<svg version="1.1" id="Layer_1" xmlns="http://www.w3.org/2000/svg" xmlns:xlink="http://www.w3.org/1999/xlink" x="0px" y="0px"
	 viewBox="0 0 128 128" style="enable-background:new 0 0 128 128;" xml:space="preserve">
<style type="text/css">
	.st0{fill:#486DB4;}
	.st1{fill:#FEFEFF;}
	.st2{fill:#496DB5;}
</style>
<title>Group</title>
<desc>Created with Sketch.</desc>
<g>
	<path class="st0" d="M64,116c-6.3,0-12.7-0.1-19,0.1c-3.6,0.1-6.1-1.3-8.3-4.1C28.5,101.8,20.2,91.6,12,81.4
		c-1.5-1.8-2.1-3.9-1.5-6.3c3.1-13.3,6.1-26.5,9.2-39.8c0.5-2.1,1.7-3.8,3.7-4.8c12.3-5.9,24.7-11.8,37-17.7c2.4-1.2,4.7-1.2,7.1,0
		c12.2,5.9,24.5,11.7,36.7,17.5c2.2,1.1,3.5,2.8,4.1,5.2c3,13.1,6,26.3,9.1,39.4c0.6,2.4,0,4.6-1.5,6.4c-7.2,9-14.5,18-21.7,27
		c-1.3,1.7-2.7,3.3-4,5c-1.5,1.8-3.4,2.7-5.7,2.7C77.7,116,70.8,116,64,116z M62.3,33c0,0.6,0,0.9,0,1.2c0,1.5-1,2.6-2.5,2.9
		c-6.3,1-11.8,3.6-16.3,8.2c-0.2,0.2-0.5,0.5-0.9,0.4c-1.1-0.3-2.3-0.5-3.1-1.5c-1.1-1.2-2.2-2.3-3.3-3.4c-1.3-1.2-3-1.2-3.8-0.1
		c-0.8,1.1-0.5,2.6,0.9,3.6c0.6,0.4,1.2,0.7,1.8,1.1c1,0.7,2.2,1.2,3,2.1c0.8,0.8,1.9,1.8,1.1,3.1c-3.5,5.6-4.7,11.8-4.1,18.3
		c0,0.3,0.3,0.7-0.1,0.9c-1.1,0.6-1.9,1.5-3.2,1.6c-1.7,0.1-3.3,0.3-5,0.6c-1.6,0.3-2.4,1.5-2.2,2.7c0.3,1.3,1.5,2.1,3.1,1.7
		c1-0.2,1.9-0.6,2.8-1c1.1-0.4,2.1-1,3.3-0.9c1,0.1,2.3-0.3,2.8,1c2.4,6.2,6.2,11.2,11.9,14.8c0.2,0.1,0.7,0.3,0.6,0.6
		c-0.3,1.1,0.2,2.2-0.6,3.3c-0.8,1.1-1.4,2.4-2.2,3.5c-0.6,0.8-1,1.6-0.9,2.6c0.1,1.7,1.6,2.6,3.1,1.8c1-0.5,1.3-1.4,1.7-2.4
		c0.5-1.5,1-3.1,1.7-4.6c0.5-1.3,2-2.1,2.9-1.8c6.2,2.1,12.4,2.1,18.7,0c0.5-0.2,0.9,0,1.4,0.3c1.3,0.7,1.7,1.9,2.2,3.2
		c0.5,1.3,0.9,2.7,1.5,4c0.6,1.3,1.9,1.9,3,1.4c1.1-0.5,1.6-1.8,1.1-3.2c-0.3-0.7-0.7-1.3-1.1-2c-0.7-1.1-1.5-2.2-2.1-3.4
		c-0.5-1-0.8-2.5,0.2-3.2c5.7-3.7,9.6-8.7,12-15c0.1-0.4,0.3-0.5,0.7-0.7c1.9-0.7,3.6,0,5.3,0.7c1,0.4,2,0.9,3.1,1
		c1.3,0.2,2.4-0.5,2.7-1.6c0.3-1.1-0.3-2.2-1.5-2.7c-0.8-0.3-1.7-0.4-2.5-0.4c-1.4,0-2.8-0.2-4.1-0.6c-1.7-0.5-2.3-1.3-2.2-3
		c0.4-6.3-1-12.2-4.3-17.6c-0.2-0.3-0.6-0.6-0.3-0.9c0.7-0.8,0.9-2.1,2-2.7c1.3-0.7,2.4-1.5,3.6-2.3c1.2-0.7,2.2-1.5,2-3
		c-0.1-0.8-0.5-1.5-1.3-1.7c-1.4-0.4-2.5,0.2-3.4,1.2c-1.2,1.3-2.3,2.6-3.7,3.6c-1.1,0.8-2.6,0.9-3.3,0.3
		c-4.7-4.5-10.2-7.2-16.7-8.1c-0.6-0.1-0.8-0.3-1.2-0.9c-1.1-1.6-0.7-3.2-0.5-4.8c0.1-1.2,0.5-2.3,0.4-3.5c-0.1-1.3-1.1-2.3-2.3-2.3
		c-1.2,0-2.2,1-2.3,2.3c0,0.7,0,1.4,0.1,2.1C62.1,31.1,62.3,32.2,62.3,33z"/>
	<path class="st1" d="M62.3,33c0-0.8-0.2-1.9-0.4-3.1c-0.2-0.7-0.2-1.4-0.1-2.1c0.1-1.3,1.1-2.3,2.3-2.3c1.2,0,2.2,1,2.3,2.3
		c0.1,1.2-0.3,2.4-0.4,3.5c-0.2,1.6-0.6,3.2,0.5,4.8c0.4,0.5,0.6,0.8,1.2,0.9c6.4,0.9,12,3.5,16.7,8.1c0.6,0.6,2.2,0.5,3.3-0.3
		c1.4-1,2.5-2.3,3.7-3.6c0.9-1,2-1.6,3.4-1.2c0.8,0.2,1.3,0.9,1.3,1.7c0.1,1.5-0.9,2.3-2,3c-1.2,0.7-2.4,1.6-3.6,2.3
		c-1.1,0.6-1.2,1.9-2,2.7c-0.2,0.3,0.2,0.6,0.3,0.9c3.4,5.4,4.8,11.3,4.3,17.6c-0.1,1.7,0.5,2.5,2.2,3c1.3,0.4,2.7,0.6,4.1,0.6
		c0.9,0,1.7,0.1,2.5,0.4c1.3,0.5,1.8,1.5,1.5,2.7c-0.3,1.1-1.4,1.8-2.7,1.6c-1.1-0.2-2.1-0.6-3.1-1c-1.7-0.7-3.4-1.4-5.3-0.7
		c-0.4,0.2-0.6,0.3-0.7,0.7c-2.3,6.3-6.3,11.4-12,15c-1,0.6-0.7,2.1-0.2,3.2c0.6,1.2,1.4,2.3,2.1,3.4c0.4,0.6,0.9,1.3,1.1,2
		c0.5,1.4,0.1,2.7-1.1,3.2c-1.1,0.5-2.5-0.1-3-1.4c-0.6-1.3-1-2.7-1.5-4c-0.5-1.2-0.9-2.5-2.2-3.2c-0.5-0.3-0.8-0.4-1.4-0.3
		c-6.2,2.1-12.4,2.1-18.7,0c-0.9-0.3-2.3,0.6-2.9,1.8c-0.6,1.5-1.1,3-1.7,4.6c-0.3,0.9-0.7,1.9-1.7,2.4c-1.5,0.8-3.1-0.1-3.1-1.8
		c-0.1-1,0.4-1.9,0.9-2.6c0.9-1.1,1.4-2.4,2.2-3.5c0.8-1,0.2-2.2,0.6-3.3c0.1-0.3-0.3-0.4-0.6-0.6c-5.6-3.6-9.5-8.5-11.9-14.8
		c-0.5-1.3-1.8-0.9-2.8-1c-1.1-0.1-2.2,0.5-3.3,0.9c-0.9,0.3-1.9,0.8-2.8,1c-1.6,0.4-2.9-0.4-3.1-1.7c-0.2-1.3,0.6-2.4,2.2-2.7
		c1.6-0.3,3.3-0.5,5-0.6c1.3-0.1,2.2-1,3.2-1.6c0.4-0.2,0.2-0.6,0.1-0.9c-0.6-6.6,0.6-12.7,4.1-18.3c0.8-1.3-0.3-2.3-1.1-3.1
		c-0.8-0.9-2-1.4-3-2.1c-0.6-0.4-1.2-0.7-1.8-1.1c-1.4-1-1.7-2.5-0.9-3.6c0.8-1.1,2.5-1.1,3.8,0.1c1.2,1.1,2.3,2.2,3.3,3.4
		c0.9,0.9,2,1.2,3.1,1.5c0.4,0.1,0.6-0.1,0.9-0.4c4.5-4.5,10-7.2,16.3-8.2c1.5-0.2,2.5-1.4,2.5-2.9C62.3,33.9,62.3,33.6,62.3,33z
		 M61.1,42.8c-4.9,0.7-9,2.5-12.6,5.7c-0.4,0.4-0.8,0.6-0.1,1.2c3,2.1,5.9,4.2,8.9,6.2c1.5,1,3.1,0.2,3.2-1.7
		c0.1-1.2,0.2-2.5,0.2-3.7C60.9,48,61,45.5,61.1,42.8z M40.9,65.5c0,0.6,0,1.2,0,1.9c0,0.6,0.3,0.8,0.9,0.6c3.5-1,6.9-2,10.4-3
		c1.7-0.5,2.1-2.2,0.8-3.4c-2.6-2.4-5.3-4.7-8-7.1c-0.6-0.6-0.9-0.4-1.2,0.3C41.8,58,41,61.7,40.9,65.5z M71.9,73.7
		c0,0.2,0,0.5,0.1,0.7c1.4,3.4,2.8,6.8,4.2,10.1c0.3,0.7,0.6,0.5,1,0.2c3.7-2.6,6.4-6.1,8.2-10.2c0.3-0.7,0.2-0.9-0.5-1
		c-3.6-0.6-7.2-1.3-10.8-1.8C72.9,71.5,72,72.4,71.9,73.7z M87.2,65c-0.2-3.2-1-6.9-2.9-10.4c-0.5-0.8-0.8-0.8-1.4-0.2
		c-2.5,2.3-5.1,4.6-7.7,6.9c-1.4,1.3-1.1,3.1,0.8,3.6c3,0.9,6,1.7,9,2.6C87.2,68.1,87.2,68.1,87.2,65z M56.1,73.8
		c0-1.3-0.9-2.2-2.2-2c-3.5,0.6-7,1.2-10.5,1.8c-1.1,0.2-0.9,0.6-0.6,1.3c1.8,4,4.3,7.2,7.9,9.8c0.8,0.6,1,0.5,1.4-0.4
		c1.1-2.9,2.4-5.7,3.5-8.6C55.7,75,56.1,74.5,56.1,73.8z M66.9,44.2c0.2,3.3,0.4,6.5,0.5,9.8c0,0.9,0.2,1.7,1.1,2.2
		c0.9,0.5,1.7,0.1,2.5-0.4c2.7-2,5.5-3.9,8.3-5.8c0.8-0.5,0.7-0.8,0-1.3c-3.2-2.8-6.9-4.6-11.1-5.5C67.1,42.8,66.6,43,66.9,44.2z
		 M64.1,88.9c2.2,0,4.3-0.3,6.3-0.9c0.8-0.2,0.9-0.5,0.5-1.2c-1.8-3.1-3.4-6.3-5.2-9.3c-0.9-1.5-2.5-1.5-3.3-0.1
		c-1.8,3.1-3.5,6.2-5.2,9.3c-0.4,0.8-0.2,1,0.6,1.2C59.8,88.6,61.9,88.9,64.1,88.9z M64,62.2c-1.7,0-4,1.7-4,3
		c0,2.1,2.1,4.6,3.9,4.7c1.7,0.1,4.1-2.7,4-4.7C67.9,63.9,65.7,62.2,64,62.2z"/>
	<path class="st2" d="M61.1,42.8c-0.1,2.6-0.2,5.2-0.4,7.7c-0.1,1.2-0.1,2.5-0.2,3.7c-0.2,1.9-1.7,2.7-3.2,1.7c-3-2-5.9-4.2-8.9-6.2
		c-0.7-0.5-0.3-0.8,0.1-1.2C52.1,45.4,56.3,43.5,61.1,42.8z"/>
	<path class="st2" d="M40.9,65.5c0.2-3.8,1-7.5,2.9-10.9c0.4-0.6,0.6-0.8,1.2-0.3c2.6,2.4,5.3,4.7,8,7.1c1.3,1.2,0.9,2.9-0.8,3.4
		c-3.5,1-6.9,2-10.4,3c-0.6,0.2-0.9,0-0.9-0.6C40.9,66.7,40.9,66.1,40.9,65.5z"/>
	<path class="st2" d="M71.9,73.7c0-1.3,0.9-2.2,2.2-2c3.6,0.6,7.2,1.2,10.8,1.8c0.7,0.1,0.8,0.3,0.5,1c-1.8,4.2-4.4,7.6-8.2,10.2
		c-0.5,0.3-0.7,0.5-1-0.2c-1.4-3.4-2.8-6.8-4.2-10.1C72,74.2,72,73.9,71.9,73.7z"/>
	<path class="st2" d="M87.2,65c0,3.1,0,3.1-2.2,2.5c-3-0.8-6-1.7-9-2.6c-1.8-0.5-2.2-2.3-0.8-3.6c2.6-2.3,5.1-4.5,7.7-6.9
		c0.7-0.6,1-0.6,1.4,0.2C86.2,58.1,87,61.8,87.2,65z"/>
	<path class="st2" d="M56.1,73.8c0,0.7-0.3,1.3-0.6,1.9c-1.2,2.9-2.4,5.7-3.5,8.6c-0.3,0.8-0.6,0.9-1.4,0.4
		c-3.5-2.5-6.1-5.8-7.9-9.8c-0.3-0.7-0.5-1.1,0.6-1.3c3.5-0.5,7-1.2,10.5-1.8C55.2,71.6,56.1,72.5,56.1,73.8z"/>
	<path class="st2" d="M66.9,44.2c-0.3-1.2,0.2-1.4,1.3-1.1c4.2,0.9,7.9,2.7,11.1,5.5c0.6,0.6,0.7,0.8,0,1.3
		c-2.8,1.9-5.5,3.9-8.3,5.8c-0.8,0.6-1.6,0.9-2.5,0.4c-0.9-0.4-1-1.3-1.1-2.2C67.3,50.7,67.1,47.5,66.9,44.2z"/>
	<path class="st2" d="M64.1,88.9c-2.2,0-4.3-0.3-6.3-0.9c-0.8-0.2-1-0.5-0.6-1.2c1.8-3.1,3.5-6.2,5.2-9.3c0.8-1.4,2.5-1.4,3.3,0.1
		c1.8,3.1,3.5,6.2,5.2,9.3c0.4,0.7,0.3,1-0.5,1.2C68.3,88.6,66.2,88.9,64.1,88.9z"/>
	<path class="st2" d="M64,62.2c1.6,0,3.9,1.7,3.9,3c0.1,2.1-2.3,4.8-4,4.7c-1.8-0.1-3.9-2.5-3.9-4.7C60,63.9,62.3,62.2,64,62.2z"/>
</g>
</svg>
