<?xml version="1.0" encoding="utf-8"?>
<!-- Generator: Adobe Illustrator 22.0.1, SVG Export Plug-In . SVG Version: 6.00 Build 0)  -->
<svg version="1.1" id="Layer_1" xmlns="http://www.w3.org/2000/svg" xmlns:xlink="http://www.w3.org/1999/xlink" x="0px" y="0px"
	 viewBox="0 0 128 128" style="enable-background:new 0 0 128 128;" xml:space="preserve">
<style type="text/css">
	.st0{fill:#4AC2C6;}
	.st1{fill:#3068B2;}
</style>
<title>Group</title>
<desc>Created with Sketch.</desc>
<g>
	<path class="st0" d="M60.9,27.9c12.2,0.2,21.7,5.5,28.6,15.6c0.5,0.8,0.4,1-0.5,1.1c-6.8,1.4-12.2,5.2-16.8,10.2
		c-4.3,4.6-7.8,9.9-11.3,15.1c-3.2,4.8-6.4,9.7-10.2,14.2c-3.9,4.7-8.3,8.7-13.9,11.4c-0.8,0.4-1.6,0.6-2.4,0.6
		c-3.6,0-7.2,0.3-10.6-0.8C15.9,93,10.9,87.7,9.2,79.7c-2.2-11,5.1-21.6,16.2-23.6c0.8-0.1,0.8-0.7,0.9-1.1c1.1-5,3.4-9.5,6.5-13.6
		c5-6.6,11.9-10.4,19.8-12.4C55.3,28.2,58.1,27.8,60.9,27.9z"/>
	<path class="st1" d="M41.9,96.1c5.4-2.9,10-6.7,14.1-11c3.4-3.5,6-7.6,9-11.5c4.3-5.7,8.8-11.3,14.3-16c5.4-4.6,11.6-7.2,18.8-7.1
		c8,0.1,14,3.9,18,10.8c6.7,11.5,2.2,26.6-9.5,32.3c-3.8,1.8-7.8,2.4-11.9,2.4c-17.5,0.3-34.9,0-52.4,0.1
		C42.1,96.1,42,96.1,41.9,96.1z"/>
</g>
</svg>
