<?xml version="1.0" encoding="utf-8"?>
<!-- Generator: Adobe Illustrator 22.0.1, SVG Export Plug-In . SVG Version: 6.00 Build 0)  -->
<svg version="1.1" id="Layer_1" xmlns="http://www.w3.org/2000/svg" xmlns:xlink="http://www.w3.org/1999/xlink" x="0px" y="0px"
	 viewBox="0 0 128 128" style="enable-background:new 0 0 128 128;" xml:space="preserve">
<style type="text/css">
	.st0{fill:#43B3E2;}
	.st1{fill:#163963;}
</style>
<title>Group</title>
<desc>Created with Sketch.</desc>
<g>
	<path class="st0" d="M94.3,14.7L117.7,64l-23.3,49.3H74.5L97.8,64L74.5,14.7H94.3L94.3,14.7z M56.5,56.6l8.4-16l-1-3.7L53.5,14.7
		H33.7l20.4,43.2L56.5,56.6L56.5,56.6z M64,87.8l-7.3-16.4l-2.7-1.3l-20.4,43.2h19.9L64,91.1L64,87.8L64,87.8z"/>
	<path class="st1" d="M74.5,113.3L51.2,64l23.3-49.3h19.9L71,64l23.3,49.3H74.5z M33.7,113.3L10.3,64l23.3-49.3h19.9L30.2,64
		l23.3,49.3H33.7L33.7,113.3z"/>
</g>
</svg>
